<?xml version="1.0" encoding="UTF-8"?>
<!DOCTYPE svg PUBLIC "-//W3C//DTD SVG 1.1//EN" "http://www.w3.org/Graphics/SVG/1.1/DTD/svg11.dtd">
<svg xmlns="http://www.w3.org/2000/svg" version="1.1" width="1024px" height="1024px" style="shape-rendering:geometricPrecision; text-rendering:geometricPrecision; image-rendering:optimizeQuality; fill-rule:evenodd; clip-rule:evenodd" xmlns:xlink="http://www.w3.org/1999/xlink">
<g><path style="opacity:0.004" fill="#81784f" d="M 691.5,297.5 C 692.833,298.167 692.833,298.167 691.5,297.5 Z"/></g>
<g><path style="opacity:0.006" fill="#80774f" d="M 688.5,299.5 C 688.897,298.475 689.563,298.308 690.5,299C 689.906,299.464 689.239,299.631 688.5,299.5 Z"/></g>
<g><path style="opacity:0.008" fill="#7f774e" d="M 694.5,298.5 C 695.833,299.167 695.833,299.167 694.5,298.5 Z"/></g>
<g><path style="opacity:0.004" fill="#7e724c" d="M 688.5,299.5 C 687.833,300.167 687.833,300.167 688.5,299.5 Z"/></g>
<g><path style="opacity:0.998" fill="#3c3e3f" d="M 698.5,312.5 C 696.659,314.849 695.326,317.515 694.5,320.5C 690.167,328.5 685.833,336.5 681.5,344.5C 681.631,343.761 681.464,343.094 681,342.5C 670.55,361.397 661.217,380.73 653,400.5C 653.717,399.956 654.217,399.289 654.5,398.5C 655.128,401.61 657.128,403.11 660.5,403C 674.847,403.61 688.681,403.443 702,402.5C 711.524,404.543 713.524,409.543 708,417.5C 698.631,426.702 689.464,436.035 680.5,445.5C 678.5,446.833 676.833,448.5 675.5,450.5C 644.473,480.86 613.806,511.527 583.5,542.5C 579.702,545.796 576.036,549.296 572.5,553C 566.221,556.231 563.387,554.398 564,547.5C 567.074,541.359 569.574,535.026 571.5,528.5C 579.262,512.896 586.262,496.896 592.5,480.5C 596.462,473.146 599.962,465.479 603,457.5C 603.78,455.613 603.613,453.946 602.5,452.5C 601.319,450.933 599.653,450.099 597.5,450C 594.631,449.991 591.964,449.824 589.5,449.5C 590.376,449.631 591.043,449.298 591.5,448.5C 580.849,447.334 570.182,447.168 559.5,448C 557.618,448.198 555.952,448.698 554.5,449.5C 553.5,449.5 552.5,449.5 551.5,449.5C 548.67,447.638 547.837,444.971 549,441.5C 550.666,438.669 552.832,436.336 555.5,434.5C 555.435,434.938 555.601,435.272 556,435.5C 557.214,433.951 558.714,432.785 560.5,432C 570.554,421.456 580.887,411.123 591.5,401C 590.906,400.536 590.239,400.369 589.5,400.5C 589.833,399.5 590.5,398.833 591.5,398.5C 591.897,399.525 592.563,399.692 593.5,399C 608.028,384.472 623.362,369.138 639.5,353C 638.906,352.536 638.239,352.369 637.5,352.5C 642.5,347.167 647.5,341.833 652.5,336.5C 654.5,335.167 656.167,333.5 657.5,331.5C 658.833,330.833 659.833,329.833 660.5,328.5C 663.5,326.167 666.167,323.5 668.5,320.5C 671.5,318.167 674.167,315.5 676.5,312.5C 680.298,309.204 683.964,305.704 687.5,302C 691.667,298.743 695.501,299.243 699,303.5C 699.634,306.555 699.468,309.555 698.5,312.5 Z"/></g>
<g><path style="opacity:0.004" fill="#7e774d" d="M 700.5,303.5 C 701.833,304.167 701.833,304.167 700.5,303.5 Z"/></g>
<g><path style="opacity:0.004" fill="#7c7550" d="M 700.5,305.5 C 701.833,306.167 701.833,306.167 700.5,305.5 Z"/></g>
<g><path style="opacity:0.008" fill="#76694c" d="M 676.5,312.5 C 675.833,311.167 675.833,311.167 676.5,312.5 Z"/></g>
<g><path style="opacity:0.004" fill="#746d4d" d="M 698.5,312.5 C 699.833,313.167 699.833,313.167 698.5,312.5 Z"/></g>
<g><path style="opacity:0.004" fill="#756649" d="M 668.5,320.5 C 667.833,319.167 667.833,319.167 668.5,320.5 Z"/></g>
<g><path style="opacity:0.004" fill="#716952" d="M 694.5,320.5 C 695.833,321.167 695.833,321.167 694.5,320.5 Z"/></g>
<g><path style="opacity:0.008" fill="#ef9b6f" d="M 504.5,327.5 C 505.833,328.167 505.833,328.167 504.5,327.5 Z"/></g>
<g><path style="opacity:0.004" fill="#76664c" d="M 660.5,328.5 C 659.833,327.167 659.833,327.167 660.5,328.5 Z"/></g>
<g><path style="opacity:0.004" fill="#776b4e" d="M 657.5,331.5 C 656.833,330.167 656.833,330.167 657.5,331.5 Z"/></g>
<g><path style="opacity:0.998" fill="#f38767" d="M 589.5,377.5 C 573.476,395.357 556.643,412.357 539,428.5C 528.177,441.72 530.01,452.887 544.5,462C 553.732,463.75 563.065,464.75 572.5,465C 576.04,465.457 578.373,467.79 579.5,472C 577.566,478.028 575.233,483.861 572.5,489.5C 559.999,496.916 547.665,504.583 535.5,512.5C 535.44,511.957 535.107,511.624 534.5,511.5C 527.329,515.92 519.996,520.086 512.5,524C 511.5,524.667 510.5,524.667 509.5,524C 456.003,491.505 402.17,459.672 348,428.5C 347.37,426.097 348.203,424.263 350.5,423C 369.833,411.667 389.167,400.333 408.5,389C 413.566,385.478 418.566,381.978 423.5,378.5C 424.598,377.603 424.598,376.77 423.5,376C 424.437,375.308 425.103,375.475 425.5,376.5C 425.56,377.043 425.893,377.376 426.5,377.5C 451.83,363.17 476.83,348.337 501.5,333C 507.665,328.879 513.998,328.546 520.5,332C 542.368,345.099 564.368,357.933 586.5,370.5C 588.854,372.246 589.854,374.579 589.5,377.5 Z"/></g>
<g><path style="opacity:0.004" fill="#e6996f" d="M 533.5,336.5 C 532.833,335.167 532.833,335.167 533.5,336.5 Z"/></g>
<g><path style="opacity:0.004" fill="#7a664a" d="M 652.5,336.5 C 651.833,335.167 651.833,335.167 652.5,336.5 Z"/></g>
<g><path style="opacity:0.004" fill="#e79770" d="M 533.5,336.5 C 534.833,337.167 534.833,337.167 533.5,336.5 Z"/></g>
<g><path style="opacity:0.008" fill="#ec9970" d="M 539.5,339.5 C 540.833,340.167 540.833,340.167 539.5,339.5 Z"/></g>
<g><path style="opacity:0.004" fill="#ed9c6e" d="M 542.5,340.5 C 543.833,341.167 543.833,341.167 542.5,340.5 Z"/></g>
<g><path style="opacity:0.004" fill="#f2986d" d="M 476.5,343.5 C 477.833,344.167 477.833,344.167 476.5,343.5 Z"/></g>
<g><path style="opacity:0.004" fill="#e89b71" d="M 547.5,344.5 C 548.833,345.167 548.833,345.167 547.5,344.5 Z"/></g>
<g><path style="opacity:0.973" fill="#eb7855" d="M 533.5,337.5 C 537.833,340.669 542.5,343.336 547.5,345.5C 560.805,354.157 574.471,362.324 588.5,370C 590.498,372.439 590.831,374.939 589.5,377.5C 589.854,374.579 588.854,372.246 586.5,370.5C 564.368,357.933 542.368,345.099 520.5,332C 513.998,328.546 507.665,328.879 501.5,333C 476.83,348.337 451.83,363.17 426.5,377.5C 425.893,377.376 425.56,377.043 425.5,376.5C 429.372,374.403 433.039,372.069 436.5,369.5C 446.339,364.082 456.006,358.416 465.5,352.5C 479.838,344.331 494.171,336.165 508.5,328C 511.594,327.348 514.594,327.682 517.5,329C 522.729,332.113 528.062,334.947 533.5,337.5 Z"/></g>
<g><path style="opacity:0.016" fill="#ed9d76" d="M 465.5,352.5 C 464.761,352.631 464.094,352.464 463.5,352C 464.437,351.308 465.103,351.475 465.5,352.5 Z"/></g>
<g><path style="opacity:0.008" fill="#7d694e" d="M 636.5,352.5 C 635.833,351.167 635.833,351.167 636.5,352.5 Z"/></g>
<g><path style="opacity:0.004" fill="#696351" d="M 678.5,356.5 C 679.833,357.167 679.833,357.167 678.5,356.5 Z"/></g>
<g><path style="opacity:0.004" fill="#f19b6e" d="M 449.5,359.5 C 450.833,360.167 450.833,360.167 449.5,359.5 Z"/></g>
<g><path style="opacity:0.004" fill="#f09a6e" d="M 447.5,360.5 C 448.833,361.167 448.833,361.167 447.5,360.5 Z"/></g>
<g><path style="opacity:0.004" fill="#e4986c" d="M 575.5,360.5 C 576.833,361.167 576.833,361.167 575.5,360.5 Z"/></g>
<g><path style="opacity:0.004" fill="#ef956d" d="M 431.5,367.5 C 432.833,368.167 432.833,368.167 431.5,367.5 Z"/></g>
<g><path style="opacity:0.004" fill="#ef976d" d="M 436.5,367.5 C 437.833,368.167 437.833,368.167 436.5,367.5 Z"/></g>
<g><path style="opacity:0.016" fill="#f0956b" d="M 436.5,368.5 C 436.5,368.833 436.5,369.167 436.5,369.5C 435.83,369.019 435.83,368.685 436.5,368.5 Z"/></g>
<g><path style="opacity:0.004" fill="#8b7053" d="M 615.5,368.5 C 616.833,369.167 616.833,369.167 615.5,368.5 Z"/></g>
<g><path style="opacity:0.004" fill="#6a6351" d="M 670.5,368.5 C 671.833,369.167 671.833,369.167 670.5,368.5 Z"/></g>
<g><path style="opacity:0.004" fill="#ed996e" d="M 431.5,370.5 C 432.833,371.167 432.833,371.167 431.5,370.5 Z"/></g>
<g><path style="opacity:0.004" fill="#887051" d="M 616.5,372.5 C 615.833,371.167 615.833,371.167 616.5,372.5 Z"/></g>
<g><path style="opacity:0.91" fill="#282a2a" d="M 681.5,344.5 C 672.547,362.407 663.547,380.407 654.5,398.5C 654.217,399.289 653.717,399.956 653,400.5C 661.217,380.73 670.55,361.397 681,342.5C 681.464,343.094 681.631,343.761 681.5,344.5 Z"/></g>
<g><path style="opacity:0.996" fill="#303030" d="M 636.5,352.5 C 636.833,352.5 637.167,352.5 637.5,352.5C 638.239,352.369 638.906,352.536 639.5,353C 623.362,369.138 608.028,384.472 593.5,399C 592.563,399.692 591.897,399.525 591.5,398.5C 592.167,397.5 592.833,396.5 593.5,395.5C 601.5,388.167 609.167,380.5 616.5,372.5C 623.5,366.167 630.167,359.5 636.5,352.5 Z"/></g>
<g><path style="opacity:0.004" fill="#ef976b" d="M 404.5,383.5 C 405.833,384.167 405.833,384.167 404.5,383.5 Z"/></g>
<g><path style="opacity:0.006" fill="#f1996c" d="M 411.5,384.5 C 410.761,384.631 410.094,384.464 409.5,384C 410.437,383.308 411.103,383.475 411.5,384.5 Z"/></g>
<g><path style="opacity:0.008" fill="#8f6e52" d="M 601.5,383.5 C 602.833,384.167 602.833,384.167 601.5,383.5 Z"/></g>
<g><path style="opacity:0.004" fill="#5f5d50" d="M 659.5,390.5 C 660.833,391.167 660.833,391.167 659.5,390.5 Z"/></g>
<g><path style="opacity:0.008" fill="#ed986d" d="M 392.5,395.5 C 391.833,394.167 391.833,394.167 392.5,395.5 Z"/></g>
<g><path style="opacity:0.004" fill="#917053" d="M 593.5,395.5 C 592.833,394.167 592.833,394.167 593.5,395.5 Z"/></g>
<g><path style="opacity:0.027" fill="#e99771" d="M 384.5,400.5 C 383.833,399.167 383.833,399.167 384.5,400.5 Z"/></g>
<g><path style="opacity:0.012" fill="#7c7250" d="M 704.5,401.5 C 705.833,402.167 705.833,402.167 704.5,401.5 Z"/></g>
<g><path style="opacity:0.004" fill="#877952" d="M 710.5,402.5 C 711.833,403.167 711.833,403.167 710.5,402.5 Z"/></g>
<g><path style="opacity:0.004" fill="#ed996e" d="M 367.5,407.5 C 368.833,408.167 368.833,408.167 367.5,407.5 Z"/></g>
<g><path style="opacity:0.004" fill="#ee9a6d" d="M 370.5,408.5 C 369.833,407.167 369.833,407.167 370.5,408.5 Z"/></g>
<g><path style="opacity:0.008" fill="#ec956b" d="M 357.5,416.5 C 356.833,415.167 356.833,415.167 357.5,416.5 Z"/></g>
<g><path style="opacity:0.012" fill="#eb9568" d="M 352.5,419.5 C 351.833,418.167 351.833,418.167 352.5,419.5 Z"/></g>
<g><path style="opacity:0.996" fill="#2e2e2e" d="M 589.5,400.5 C 590.239,400.369 590.906,400.536 591.5,401C 580.887,411.123 570.554,421.456 560.5,432C 558.714,432.785 557.214,433.951 556,435.5C 555.601,435.272 555.435,434.938 555.5,434.5C 566.5,422.833 577.833,411.5 589.5,400.5 Z"/></g>
<g><path style="opacity:0.004" fill="#978965" d="M 691.5,438.5 C 692.833,439.167 692.833,439.167 691.5,438.5 Z"/></g>
<g><path style="opacity:0.004" fill="#928462" d="M 680.5,445.5 C 681.833,446.167 681.833,446.167 680.5,445.5 Z"/></g>
<g><path style="opacity:0.984" fill="#3e3b39" d="M 589.5,449.5 C 578.216,450.552 566.55,450.552 554.5,449.5C 555.952,448.698 557.618,448.198 559.5,448C 570.182,447.168 580.849,447.334 591.5,448.5C 591.043,449.298 590.376,449.631 589.5,449.5 Z"/></g>
<g><path style="opacity:0.004" fill="#d18763" d="M 551.5,449.5 C 550.833,450.167 550.833,450.167 551.5,449.5 Z"/></g>
<g><path style="opacity:0.008" fill="#948767" d="M 675.5,450.5 C 676.833,451.167 676.833,451.167 675.5,450.5 Z"/></g>
<g><path style="opacity:0.008" fill="#6d604e" d="M 602.5,452.5 C 601.833,453.167 601.833,453.167 602.5,452.5 Z"/></g>
<g><path style="opacity:0.008" fill="#6d6050" d="M 601.5,454.5 C 602.833,455.167 602.833,455.167 601.5,454.5 Z"/></g>
<g><path style="opacity:0.004" fill="#75634e" d="M 599.5,460.5 C 600.833,461.167 600.833,461.167 599.5,460.5 Z"/></g>
<g><path style="opacity:0.997" fill="#e47356" d="M 423.5,378.5 C 418.566,381.978 413.566,385.478 408.5,389C 389.167,400.333 369.833,411.667 350.5,423C 348.203,424.263 347.37,426.097 348,428.5C 402.17,459.672 456.003,491.505 509.5,524C 510.5,524.667 511.5,524.667 512.5,524C 519.996,520.086 527.329,515.92 534.5,511.5C 535.107,511.624 535.44,511.957 535.5,512.5C 527.631,516.93 519.964,521.597 512.5,526.5C 512.5,561.833 512.5,597.167 512.5,632.5C 511.667,597.002 511.167,561.336 511,525.5C 510.169,585.404 510.336,645.237 511.5,705C 507.203,704.866 503.203,703.533 499.5,701C 475.911,686.268 451.911,672.101 427.5,658.5C 426.893,658.624 426.56,658.957 426.5,659.5C 416.33,653.248 405.997,647.248 395.5,641.5C 394.167,640.5 392.833,639.5 391.5,638.5C 392.239,638.631 392.906,638.464 393.5,638C 378.833,629.333 364.167,620.667 349.5,612C 347.959,610.421 346.792,608.587 346,606.5C 345.833,546.999 345.333,487.665 344.5,428.5C 346.482,424.854 349.149,421.854 352.5,419.5C 354.674,419.25 356.341,418.25 357.5,416.5C 362.343,414.582 366.677,411.916 370.5,408.5C 375.5,406.336 380.167,403.669 384.5,400.5C 387.511,399.331 390.178,397.664 392.5,395.5C 399.332,392.588 405.666,388.921 411.5,384.5C 415.5,382.5 419.5,380.5 423.5,378.5 Z"/></g>
<g><path style="opacity:0.004" fill="#d6bb8c" d="M 674.5,472.5 C 675.833,473.167 675.833,473.167 674.5,472.5 Z"/></g>
<g><path style="opacity:0.004" fill="#917257" d="M 591.5,475.5 C 592.833,476.167 592.833,476.167 591.5,475.5 Z"/></g>
<g><path style="opacity:0.008" fill="#947a5e" d="M 592.5,480.5 C 591.833,479.167 591.833,479.167 592.5,480.5 Z"/></g>
<g><path style="opacity:0.997" fill="#f0cb9f" d="M 677.5,476.5 C 678.156,519.961 678.823,563.294 679.5,606.5C 677.721,611.447 674.387,614.947 669.5,617C 642.942,632.776 616.276,648.276 589.5,663.5C 586.093,664.925 583.093,664.258 580.5,661.5C 581.024,659.547 582.024,657.88 583.5,656.5C 582.16,655.312 581.493,653.812 581.5,652C 582.114,650.463 582.114,649.13 581.5,648C 583.715,646.609 583.715,644.943 581.5,643C 582,642.5 582.5,642 583,641.5C 584.396,643.527 586.062,643.86 588,642.5C 589.085,644.657 590.251,644.824 591.5,643C 589.435,641.021 587.268,639.188 585,637.5C 584.667,637.833 584.333,638.167 584,638.5C 583.313,635.029 584.313,634.695 587,637.5C 587.163,635.613 586.329,634.113 584.5,633C 586.762,632.358 588.929,631.525 591,630.5C 591.684,629.216 591.517,628.049 590.5,627C 592.891,626.309 592.891,625.309 590.5,624C 590.147,621.245 590.647,618.078 592,614.5C 593.223,616.985 594.723,617.152 596.5,615C 595.833,614.333 595.167,613.667 594.5,613C 596.973,611.439 598.973,609.439 600.5,607C 601.5,606.667 602.5,606.333 603.5,606C 600.931,604.574 598.764,604.741 597,606.5C 595.242,605.531 594.742,604.364 595.5,603C 593.901,601.934 592.901,600.434 592.5,598.5C 595.686,597.471 597.853,595.138 599,591.5C 596.538,592.65 594.204,593.983 592,595.5C 591.056,592.653 591.556,590.153 593.5,588C 591.576,587.821 589.909,587.654 588.5,587.5C 589.665,586.416 590.998,585.583 592.5,585C 591.663,583.989 591.33,582.822 591.5,581.5C 589.181,582.167 586.847,582.334 584.5,582C 585.471,580.796 586.471,580.296 587.5,580.5C 581.72,579.319 581.386,577.819 586.5,576C 584.278,575.305 582.111,574.472 580,573.5C 577.94,574.59 576.607,576.257 576,578.5C 575.612,576.285 574.612,574.952 573,574.5C 572.333,575.167 571.667,575.833 571,576.5C 569.077,575.684 567.077,575.017 565,574.5C 563.212,575.3 561.545,575.634 560,575.5C 559.676,573.431 558.842,573.098 557.5,574.5C 554.967,572.974 555.3,571.974 558.5,571.5C 564.455,573.829 570.455,573.996 576.5,572C 594.391,555.609 611.391,538.443 627.5,520.5C 636.201,511.801 644.534,502.801 652.5,493.5C 656.167,491.833 658.833,489.167 660.5,485.5C 664.616,480.884 669.449,477.217 675,474.5C 676.301,474.639 677.134,475.305 677.5,476.5 Z"/></g>
<g><path style="opacity:0.004" fill="#e3c698" d="M 660.5,485.5 C 659.833,484.167 659.833,484.167 660.5,485.5 Z"/></g>
<g><path style="opacity:0.004" fill="#edcf99" d="M 681.5,488.5 C 682.833,489.167 682.833,489.167 681.5,488.5 Z"/></g>
<g><path style="opacity:0.004" fill="#edd19a" d="M 681.5,490.5 C 682.833,491.167 682.833,491.167 681.5,490.5 Z"/></g>
<g><path style="opacity:0.004" fill="#e3c895" d="M 652.5,493.5 C 651.833,492.167 651.833,492.167 652.5,493.5 Z"/></g>
<g><path style="opacity:0.006" fill="#a48664" d="M 583.5,496.5 C 584.525,496.897 584.692,497.563 584,498.5C 583.536,497.906 583.369,497.239 583.5,496.5 Z"/></g>
<g><path style="opacity:0.004" fill="#eed09b" d="M 681.5,496.5 C 682.833,497.167 682.833,497.167 681.5,496.5 Z"/></g>
<g><path style="opacity:0.008" fill="#f1d39c" d="M 681.5,498.5 C 682.833,499.167 682.833,499.167 681.5,498.5 Z"/></g>
<g><path style="opacity:0.004" fill="#e2c797" d="M 643.5,500.5 C 644.833,501.167 644.833,501.167 643.5,500.5 Z"/></g>
<g><path style="opacity:0.004" fill="#f1d29d" d="M 681.5,500.5 C 682.833,501.167 682.833,501.167 681.5,500.5 Z"/></g>
<g><path style="opacity:0.004" fill="#aa8b68" d="M 580.5,503.5 C 581.525,503.897 581.692,504.563 581,505.5C 580.536,504.906 580.369,504.239 580.5,503.5 Z"/></g>
<g><path style="opacity:0.004" fill="#f2d39e" d="M 681.5,504.5 C 682.833,505.167 682.833,505.167 681.5,504.5 Z"/></g>
<g><path style="opacity:0.004" fill="#e2c798" d="M 635.5,508.5 C 636.833,509.167 636.833,509.167 635.5,508.5 Z"/></g>
<g><path style="opacity:0.997" fill="#f0c191" d="M 677.5,476.5 C 678.79,477.058 679.623,478.058 680,479.5C 680.827,521.904 680.661,564.238 679.5,606.5C 678.823,563.294 678.156,519.961 677.5,476.5 Z"/></g>
<g><path style="opacity:0.004" fill="#f2d59c" d="M 681.5,520.5 C 682.833,521.167 682.833,521.167 681.5,520.5 Z"/></g>
<g><path style="opacity:0.004" fill="#f1d49e" d="M 681.5,522.5 C 682.833,523.167 682.833,523.167 681.5,522.5 Z"/></g>
<g><path style="opacity:0.008" fill="#f2d5a0" d="M 681.5,528.5 C 682.833,529.167 682.833,529.167 681.5,528.5 Z"/></g>
<g><path style="opacity:0.004" fill="#f4d59f" d="M 681.5,532.5 C 682.833,533.167 682.833,533.167 681.5,532.5 Z"/></g>
<g><path style="opacity:0.008" fill="#f3d49f" d="M 681.5,535.5 C 682.525,535.897 682.692,536.563 682,537.5C 681.536,536.906 681.369,536.239 681.5,535.5 Z"/></g>
<g><path style="opacity:0.008" fill="#f4d49f" d="M 681.5,538.5 C 682.833,539.167 682.833,539.167 681.5,538.5 Z"/></g>
<g><path style="opacity:0.004" fill="#f2d59e" d="M 681.5,544.5 C 682.833,545.167 682.833,545.167 681.5,544.5 Z"/></g>
<g><path style="opacity:0.997" fill="#eec599" d="M 572.5,489.5 C 565.152,508.712 557.319,527.712 549,546.5C 546.155,558.667 550.655,566.834 562.5,571C 567.287,571.879 571.953,571.545 576.5,570C 589.339,558.327 601.672,546.161 613.5,533.5C 618.167,529.167 622.833,524.833 627.5,520.5C 611.391,538.443 594.391,555.609 576.5,572C 570.455,573.996 564.455,573.829 558.5,571.5C 555.3,571.974 554.967,572.974 557.5,574.5C 558.842,573.098 559.676,573.431 560,575.5C 561.545,575.634 563.212,575.3 565,574.5C 567.077,575.017 569.077,575.684 571,576.5C 571.667,575.833 572.333,575.167 573,574.5C 574.612,574.952 575.612,576.285 576,578.5C 576.607,576.257 577.94,574.59 580,573.5C 582.111,574.472 584.278,575.305 586.5,576C 581.386,577.819 581.72,579.319 587.5,580.5C 586.471,580.296 585.471,580.796 584.5,582C 586.847,582.334 589.181,582.167 591.5,581.5C 591.33,582.822 591.663,583.989 592.5,585C 590.998,585.583 589.665,586.416 588.5,587.5C 589.909,587.654 591.576,587.821 593.5,588C 591.556,590.153 591.056,592.653 592,595.5C 594.204,593.983 596.538,592.65 599,591.5C 597.853,595.138 595.686,597.471 592.5,598.5C 592.901,600.434 593.901,601.934 595.5,603C 594.742,604.364 595.242,605.531 597,606.5C 598.764,604.741 600.931,604.574 603.5,606C 602.5,606.333 601.5,606.667 600.5,607C 598.973,609.439 596.973,611.439 594.5,613C 595.167,613.667 595.833,614.333 596.5,615C 594.723,617.152 593.223,616.985 592,614.5C 590.647,618.078 590.147,621.245 590.5,624C 592.891,625.309 592.891,626.309 590.5,627C 591.517,628.049 591.684,629.216 591,630.5C 588.929,631.525 586.762,632.358 584.5,633C 586.329,634.113 587.163,635.613 587,637.5C 584.313,634.695 583.313,635.029 584,638.5C 584.333,638.167 584.667,637.833 585,637.5C 587.268,639.188 589.435,641.021 591.5,643C 590.251,644.824 589.085,644.657 588,642.5C 586.062,643.86 584.396,643.527 583,641.5C 582.5,642 582,642.5 581.5,643C 583.715,644.943 583.715,646.609 581.5,648C 582.114,649.13 582.114,650.463 581.5,652C 581.493,653.812 582.16,655.312 583.5,656.5C 582.024,657.88 581.024,659.547 580.5,661.5C 583.093,664.258 586.093,664.925 589.5,663.5C 586.681,666.075 583.681,668.408 580.5,670.5C 567.167,677.833 553.833,685.167 540.5,692.5C 533.553,695.618 526.719,698.951 520,702.5C 518.404,699.745 518.571,696.911 520.5,694C 519.328,693.581 518.328,692.915 517.5,692C 518.449,691.383 519.282,691.549 520,692.5C 522.895,690.392 525.561,688.059 528,685.5C 530.524,686.689 533.024,686.356 535.5,684.5C 536.61,682.504 536.276,680.671 534.5,679C 536.569,678.676 536.902,677.842 535.5,676.5C 536.035,674.729 536.869,674.396 538,675.5C 539.666,673.597 541.5,673.263 543.5,674.5C 549.669,673.043 549.335,671.543 542.5,670C 547.021,668.366 547.354,666.366 543.5,664C 546.844,663.43 547.177,662.264 544.5,660.5C 545.641,659.575 545.641,658.741 544.5,658C 545.308,657.692 545.975,657.192 546.5,656.5C 545.833,655.167 545.167,653.833 544.5,652.5C 544.846,651.304 545.346,651.304 546,652.5C 546.402,651.128 546.902,649.795 547.5,648.5C 547.212,646.513 545.879,644.846 543.5,643.5C 544.381,642.029 545.714,641.196 547.5,641C 547.5,640 547.5,639 547.5,638C 548.448,637.517 549.448,637.351 550.5,637.5C 550.587,634.402 550.087,634.068 549,636.5C 548.5,635.5 548,634.5 547.5,633.5C 548.603,633.002 549.603,632.669 550.5,632.5C 548.994,631.253 547.494,631.253 546,632.5C 545.506,630.866 545.34,629.199 545.5,627.5C 542.402,627.413 542.068,627.913 544.5,629C 543.359,629.741 543.359,630.575 544.5,631.5C 543.645,632.293 542.811,631.96 542,630.5C 541.219,631.944 541.386,633.277 542.5,634.5C 543.812,633.54 545.146,633.706 546.5,635C 544.481,635.45 542.648,636.283 541,637.5C 540.803,632.822 539.803,632.488 538,636.5C 537.683,634.699 537.016,634.366 536,635.5C 535.833,635.167 535.667,634.833 535.5,634.5C 536.376,633.749 537.376,633.249 538.5,633C 537.044,632.577 536.544,631.744 537,630.5C 537.414,630.957 537.914,631.291 538.5,631.5C 540.291,629.979 541.624,628.146 542.5,626C 541.833,625.667 541.167,625.333 540.5,625C 541.872,624.598 543.205,624.098 544.5,623.5C 545.192,624.025 545.692,624.692 546,625.5C 547.314,623.188 548.981,621.188 551,619.5C 558.679,620.791 559.013,619.457 552,615.5C 549.541,615.89 547.874,617.224 547,619.5C 546.044,618.421 545.211,617.255 544.5,616C 545.452,611.762 547.452,608.095 550.5,605C 550,604.5 549.5,604 549,603.5C 547.956,604.623 547.29,605.956 547,607.5C 546.228,606.151 545.061,605.318 543.5,605C 547.11,603.18 550.776,601.18 554.5,599C 553.166,596.34 552.332,593.506 552,590.5C 550.287,589.122 548.953,587.455 548,585.5C 547.586,585.957 547.086,586.291 546.5,586.5C 545.691,583.137 544.025,580.304 541.5,578C 542.956,577.577 543.456,576.744 543,575.5C 541.612,576.554 540.112,576.72 538.5,576C 539.167,575.667 539.833,575.333 540.5,575C 539.689,572.895 538.689,570.895 537.5,569C 538.68,565.909 538.013,564.076 535.5,563.5C 536.325,562.614 537.325,562.281 538.5,562.5C 538.92,560.326 538.92,558.326 538.5,556.5C 539.36,554.069 541.027,552.736 543.5,552.5C 543.32,548.785 543.654,545.118 544.5,541.5C 544.101,539.803 543.601,538.137 543,536.5C 541.732,536.616 540.398,536.949 539,537.5C 538.339,535.084 536.839,533.418 534.5,532.5C 532.958,533.747 531.458,533.747 530,532.5C 529.109,537.018 527.276,537.018 524.5,532.5C 525.09,531.201 526.09,530.368 527.5,530C 526.874,529.25 526.374,528.416 526,527.5C 524.284,527.411 522.451,527.744 520.5,528.5C 520.646,527.024 519.813,525.691 518,524.5C 516.594,525.414 515.094,526.08 513.5,526.5C 513.167,526.5 512.833,526.5 512.5,526.5C 519.964,521.597 527.631,516.93 535.5,512.5C 547.665,504.583 559.999,496.916 572.5,489.5 Z"/></g>
<g><path style="opacity:0.004" fill="#ceb281" d="M 561.5,547.5 C 562.833,548.167 562.833,548.167 561.5,547.5 Z"/></g>
<g><path style="opacity:0.008" fill="#b29e7a" d="M 583.5,542.5 C 584.833,543.167 584.833,543.167 583.5,542.5 Z"/></g>
<g><path style="opacity:0.004" fill="#e3c799" d="M 613.5,533.5 C 612.475,533.103 612.308,532.437 613,531.5C 613.464,532.094 613.631,532.761 613.5,533.5 Z"/></g>
<g><path style="opacity:0.004" fill="#b1956f" d="M 571.5,528.5 C 570.833,527.167 570.833,527.167 571.5,528.5 Z"/></g>
<g><path style="opacity:0.004" fill="#d0b788" d="M 567.5,556.5 C 566.833,555.167 566.833,555.167 567.5,556.5 Z"/></g>
<g><path style="opacity:0.008" fill="#d0b78c" d="M 567.5,556.5 C 568.833,557.167 568.833,557.167 567.5,556.5 Z"/></g>
<g><path style="opacity:0.004" fill="#eccc98" d="M 553.5,562.5 C 554.833,563.167 554.833,563.167 553.5,562.5 Z"/></g>
<g><path style="opacity:0.006" fill="#f4d59d" d="M 681.5,567.5 C 682.525,567.897 682.692,568.563 682,569.5C 681.536,568.906 681.369,568.239 681.5,567.5 Z"/></g>
<g><path style="opacity:0.016" fill="#de875d" d="M 344.5,608.5 C 343.833,609.167 343.833,609.167 344.5,608.5 Z"/></g>
<g><path style="opacity:0.004" fill="#e0865a" d="M 344.5,612.5 C 345.833,613.167 345.833,613.167 344.5,612.5 Z"/></g>
<g><path style="opacity:1" fill="#db6b48" d="M 344.5,428.5 C 345.333,487.665 345.833,546.999 346,606.5C 346.792,608.587 347.959,610.421 349.5,612C 364.167,620.667 378.833,629.333 393.5,638C 392.906,638.464 392.239,638.631 391.5,638.5C 389.95,637.559 388.284,636.893 386.5,636.5C 377.098,630.442 367.431,624.776 357.5,619.5C 352.57,616.535 348.237,612.869 344.5,608.5C 343.174,548.489 343.174,488.489 344.5,428.5 Z"/></g>
<g><path style="opacity:0.995" fill="#f6eab6" d="M 512.5,526.5 C 512.833,526.5 513.167,526.5 513.5,526.5C 513.51,586.412 513.51,646.079 513.5,705.5C 512.502,681.339 512.169,657.006 512.5,632.5C 512.5,597.167 512.5,561.833 512.5,526.5 Z"/></g>
<g><path style="opacity:0.008" fill="#e18659" d="M 357.5,619.5 C 356.833,620.167 356.833,620.167 357.5,619.5 Z"/></g>
<g><path style="opacity:0.004" fill="#e5845b" d="M 370.5,628.5 C 369.761,628.631 369.094,628.464 368.5,628C 369.437,627.308 370.103,627.475 370.5,628.5 Z"/></g>
<g><path style="opacity:0.004" fill="#e2845a" d="M 370.5,628.5 C 371.167,628.5 371.5,628.833 371.5,629.5C 371.167,629.167 370.833,628.833 370.5,628.5 Z"/></g>
<g><path style="opacity:0.004" fill="#e4875c" d="M 371.5,629.5 C 372.833,630.167 372.833,630.167 371.5,629.5 Z"/></g>
<g><path style="opacity:1" fill="#edc195" d="M 540.5,692.5 C 532.271,698.784 523.271,703.784 513.5,707.5C 513.5,706.833 513.5,706.167 513.5,705.5C 513.51,646.079 513.51,586.412 513.5,526.5C 515.094,526.08 516.594,525.414 518,524.5C 519.813,525.691 520.646,527.024 520.5,528.5C 522.451,527.744 524.284,527.411 526,527.5C 526.374,528.416 526.874,529.25 527.5,530C 526.09,530.368 525.09,531.201 524.5,532.5C 527.276,537.018 529.109,537.018 530,532.5C 531.458,533.747 532.958,533.747 534.5,532.5C 536.839,533.418 538.339,535.084 539,537.5C 540.398,536.949 541.732,536.616 543,536.5C 543.601,538.137 544.101,539.803 544.5,541.5C 543.654,545.118 543.32,548.785 543.5,552.5C 541.027,552.736 539.36,554.069 538.5,556.5C 538.92,558.326 538.92,560.326 538.5,562.5C 537.325,562.281 536.325,562.614 535.5,563.5C 538.013,564.076 538.68,565.909 537.5,569C 538.689,570.895 539.689,572.895 540.5,575C 539.833,575.333 539.167,575.667 538.5,576C 540.112,576.72 541.612,576.554 543,575.5C 543.456,576.744 542.956,577.577 541.5,578C 544.025,580.304 545.691,583.137 546.5,586.5C 547.086,586.291 547.586,585.957 548,585.5C 548.953,587.455 550.287,589.122 552,590.5C 552.332,593.506 553.166,596.34 554.5,599C 550.776,601.18 547.11,603.18 543.5,605C 545.061,605.318 546.228,606.151 547,607.5C 547.29,605.956 547.956,604.623 549,603.5C 549.5,604 550,604.5 550.5,605C 547.452,608.095 545.452,611.762 544.5,616C 545.211,617.255 546.044,618.421 547,619.5C 547.874,617.224 549.541,615.89 552,615.5C 559.013,619.457 558.679,620.791 551,619.5C 548.981,621.188 547.314,623.188 546,625.5C 545.692,624.692 545.192,624.025 544.5,623.5C 543.205,624.098 541.872,624.598 540.5,625C 541.167,625.333 541.833,625.667 542.5,626C 541.624,628.146 540.291,629.979 538.5,631.5C 537.914,631.291 537.414,630.957 537,630.5C 536.544,631.744 537.044,632.577 538.5,633C 537.376,633.249 536.376,633.749 535.5,634.5C 535.667,634.833 535.833,635.167 536,635.5C 537.016,634.366 537.683,634.699 538,636.5C 539.803,632.488 540.803,632.822 541,637.5C 542.648,636.283 544.481,635.45 546.5,635C 545.146,633.706 543.812,633.54 542.5,634.5C 541.386,633.277 541.219,631.944 542,630.5C 542.811,631.96 543.645,632.293 544.5,631.5C 543.359,630.575 543.359,629.741 544.5,629C 542.068,627.913 542.402,627.413 545.5,627.5C 545.34,629.199 545.506,630.866 546,632.5C 547.494,631.253 548.994,631.253 550.5,632.5C 549.603,632.669 548.603,633.002 547.5,633.5C 548,634.5 548.5,635.5 549,636.5C 550.087,634.068 550.587,634.402 550.5,637.5C 549.448,637.351 548.448,637.517 547.5,638C 547.5,639 547.5,640 547.5,641C 545.714,641.196 544.381,642.029 543.5,643.5C 545.879,644.846 547.212,646.513 547.5,648.5C 546.902,649.795 546.402,651.128 546,652.5C 545.346,651.304 544.846,651.304 544.5,652.5C 545.167,653.833 545.833,655.167 546.5,656.5C 545.975,657.192 545.308,657.692 544.5,658C 545.641,658.741 545.641,659.575 544.5,660.5C 547.177,662.264 546.844,663.43 543.5,664C 547.354,666.366 547.021,668.366 542.5,670C 549.335,671.543 549.669,673.043 543.5,674.5C 541.5,673.263 539.666,673.597 538,675.5C 536.869,674.396 536.035,674.729 535.5,676.5C 536.902,677.842 536.569,678.676 534.5,679C 536.276,680.671 536.61,682.504 535.5,684.5C 533.024,686.356 530.524,686.689 528,685.5C 525.561,688.059 522.895,690.392 520,692.5C 519.282,691.549 518.449,691.383 517.5,692C 518.328,692.915 519.328,693.581 520.5,694C 518.571,696.911 518.404,699.745 520,702.5C 526.719,698.951 533.553,695.618 540.5,692.5 Z"/></g>
<g><path style="opacity:0.004" fill="#e38759" d="M 381.5,634.5 C 382.833,635.167 382.833,635.167 381.5,634.5 Z"/></g>
<g><path style="opacity:0.008" fill="#e4845a" d="M 386.5,636.5 C 385.833,637.167 385.833,637.167 386.5,636.5 Z"/></g>
<g><path style="opacity:0.004" fill="#e3865b" d="M 388.5,638.5 C 389.833,639.167 389.833,639.167 388.5,638.5 Z"/></g>
<g><path style="opacity:0.004" fill="#e2875c" d="M 395.5,641.5 C 394.833,642.167 394.833,642.167 395.5,641.5 Z"/></g>
<g><path style="opacity:0.004" fill="#e4865b" d="M 396.5,643.5 C 397.833,644.167 397.833,644.167 396.5,643.5 Z"/></g>
<g><path style="opacity:1" fill="#de6647" d="M 512.5,632.5 C 512.169,657.006 512.502,681.339 513.5,705.5C 513.5,706.167 513.5,706.833 513.5,707.5C 511.473,707.662 509.473,707.495 507.5,707C 494.274,699.223 480.941,691.723 467.5,684.5C 462.335,680.414 456.668,677.08 450.5,674.5C 448.853,672.674 446.853,671.34 444.5,670.5C 438.536,666.848 432.536,663.181 426.5,659.5C 426.56,658.957 426.893,658.624 427.5,658.5C 451.911,672.101 475.911,686.268 499.5,701C 503.203,703.533 507.203,704.866 511.5,705C 510.336,645.237 510.169,585.404 511,525.5C 511.167,561.336 511.667,597.002 512.5,632.5 Z"/></g>
<g><path style="opacity:0.004" fill="#e7865e" d="M 425.5,660.5 C 426.833,661.167 426.833,661.167 425.5,660.5 Z"/></g>
<g><path style="opacity:0.004" fill="#efcd9a" d="M 587.5,666.5 C 588.833,667.167 588.833,667.167 587.5,666.5 Z"/></g>
<g><path style="opacity:0.004" fill="#e4885b" d="M 438.5,668.5 C 439.833,669.167 439.833,669.167 438.5,668.5 Z"/></g>
<g><path style="opacity:0.004" fill="#e28359" d="M 444.5,670.5 C 443.833,671.167 443.833,671.167 444.5,670.5 Z"/></g>
<g><path style="opacity:0.016" fill="#f2cb98" d="M 580.5,670.5 C 581.833,671.167 581.833,671.167 580.5,670.5 Z"/></g>
<g><path style="opacity:0.016" fill="#e4885a" d="M 450.5,674.5 C 449.833,675.167 449.833,675.167 450.5,674.5 Z"/></g>
<g><path style="opacity:0.004" fill="#e6865d" d="M 449.5,676.5 C 450.833,677.167 450.833,677.167 449.5,676.5 Z"/></g>
<g><path style="opacity:0.012" fill="#e58660" d="M 464.5,683.5 C 465.833,684.167 465.833,684.167 464.5,683.5 Z"/></g>
<g><path style="opacity:0.004" fill="#e5865f" d="M 467.5,684.5 C 466.833,685.167 466.833,685.167 467.5,684.5 Z"/></g>
<g><path style="opacity:0.004" fill="#e48a5e" d="M 479.5,692.5 C 480.833,693.167 480.833,693.167 479.5,692.5 Z"/></g>
<g><path style="opacity:0.004" fill="#9f9037" d="M 476.5,875.5 C 477.833,876.167 477.833,876.167 476.5,875.5 Z"/></g>
<g><path style="opacity:0.004" fill="#89822a" d="M 307.5,933.5 C 308.833,934.167 308.833,934.167 307.5,933.5 Z"/></g>
</svg>
